<?xml version="1.0" standalone="no"?>
<!DOCTYPE svg PUBLIC "-//W3C//DTD SVG 20010904//EN"
 "http://www.w3.org/TR/2001/REC-SVG-20010904/DTD/svg10.dtd">
<svg version="1.0" xmlns="http://www.w3.org/2000/svg"
 width="400.000000pt" height="260.000000pt" viewBox="0 0 400.000000 260.000000" 
 preserveAspectRatio="xMidYMid meet">

<g transform="translate(0.000000,260.000000) scale(0.100000,-0.100000)"
 stroke="none">
<path d="M77 2408 c6 -7 407 -528 892 -1158 l882 -1145 52 -2 52 -2 980 1148
c539 632 981 1154 983 1160 3 8 -80 11 -280 11 l-284 0 -723 -940 c-398 -517
-726 -938 -730 -936 -4 3 -287 426 -631 940 l-623 936 -290 0 c-230 0 -287 -3
-280 -12z"/>
<path d="M1813 2400 c-40 -11 -103 -34 -139 -52 -65 -32 -184 -131 -205 -170
-9 -17 7 -42 106 -175 64 -85 120 -151 125 -147 13 15 300 545 300 555 0 15
-111 9 -187 -11z"/>
<path d="M1994 2278 l-70 -133 280 -3 c153 -1 281 0 284 3 19 19 -139 155
-237 204 -53 27 -151 61 -176 61 -6 0 -43 -60 -81 -132z"/>
<path d="M1403 2075 c-43 -83 -64 -176 -65 -277 0 -152 -25 -138 244 -138
l230 0 -123 128 c-106 110 -193 215 -250 302 l-16 25 -20 -40z"/>
<path d="M2153 1988 c2 -7 71 -110 152 -228 81 -118 157 -230 168 -247 12 -18
25 -33 28 -33 12 0 58 116 75 186 18 79 15 223 -7 289 l-14 40 -204 3 c-161 2
-202 0 -198 -10z"/>
<path d="M2207 1698 c-22 -38 -243 -443 -277 -507 l-12 -24 88 6 c49 3 119 15
155 26 85 27 200 102 262 170 l47 54 -23 31 c-13 17 -67 89 -120 159 l-95 128
-25 -43z"/>
<path d="M1410 1505 c0 -3 16 -31 36 -62 72 -112 182 -196 320 -243 96 -33 89
-38 182 140 45 87 82 161 82 164 0 3 -139 6 -310 6 -170 0 -310 -2 -310 -5z"/>
</g>
</svg>
